<?xml version="1.0" encoding="UTF-8"?>
<svg id="Layer_1" xmlns="http://www.w3.org/2000/svg" viewBox="0 0 512 512">
  <defs>
    <style>
      .cls-1 {
        fill: red;
      }
    </style>
  </defs>
  <path class="cls-1" d="M464,256c0,114.88-93.12,208-208,208S48,370.88,48,256,141.12,48,256,48s208,93.12,208,208ZM0,256c0,141.38,114.62,256,256,256s256-114.62,256-256S397.38,0,256,0,0,114.62,0,256ZM294.6,151.2c-4.2-4.6-10.1-7.2-16.4-7.2-12.2,0-22.2,10-22.2,22.3v41.7h-96c-17.7,0-32,14.3-32,32v32c0,17.7,14.3,32,32,32h96v41.7c0,12.3,10,22.3,22.3,22.3,6.2,0,12.1-2.6,16.4-7.2l84-91c3.5-3.8,5.4-8.7,5.4-13.9s-1.9-10.1-5.4-13.9l-84-91-.1.2Z"/>
</svg>